<?xml version='1.0' encoding='utf-8'?>
<svg xmlns="http://www.w3.org/2000/svg" version="1.1" viewBox="0 0 1815 925"> <g transform="translate(66135,35425)"> <g fill="none"> <g stroke="#0b5cd5"> <g stroke-width="150"> <path transform="matrix(.1 0 0 .1 -65798 -34962)" d="m7800-4100a975 450 0 0 1-975 450 975 450 0 0 1-975-450 975 450 0 0 1 975-450 975 450 0 0 1 975 450z"/> <path transform="matrix(.1 0 0 .1 -65798 -34962)" d="m7800-3650c0 119.35-102.72 233.81-285.57 318.2-182.85 84.392-430.84 131.8-689.43 131.8s-506.58-47.41-689.43-131.8c-182.85-84.392-285.57-198.85-285.57-318.2"/> <path transform="matrix(.1 0 0 .1 -65798 -34962)" d="m7800-3200c0 119.35-102.72 233.81-285.57 318.2-182.85 84.392-430.84 131.8-689.43 131.8s-506.58-47.41-689.43-131.8c-182.85-84.392-285.57-198.85-285.57-318.2"/> <path transform="matrix(.1 0 0 .1 -65798 -34962)" d="m7800-2300c0 119.35-102.72 233.81-285.57 318.2-182.85 84.392-430.84 131.8-689.43 131.8s-506.58-47.41-689.43-131.8c-182.85-84.392-285.57-198.85-285.57-318.2"/> <path transform="matrix(.1 0 0 .1 -65798 -34962)" d="m7800-2750c0 119.35-102.72 233.81-285.57 318.2-182.85 84.392-430.84 131.8-689.43 131.8s-506.58-47.41-689.43-131.8c-182.85-84.392-285.57-198.85-285.57-318.2"/> <path transform="matrix(.1 0 0 .10056 -65798 -34961)" d="m5850-4100v1800"/> <path transform="matrix(.1 0 0 .10056 -65798 -34961)" d="m7800-4100v1800"/> </g> <path transform="matrix(.1 0 0 .1 -60548 -31882)" d="m-45675-32575c0 175 0 350.01-595.83 437.5-595.83 87.495-1787.5 87.495-2979.2 87.495" stroke-dasharray="2000, 500, 250, 500" stroke-linecap="round" stroke-linejoin="round" stroke-width="250"/> </g> <g stroke="#1ba97f"> <g stroke-width="150"> <path transform="matrix(.1 0 0 .1 -65452 -34962)" d="m7800-4100a975 450 0 0 1-975 450 975 450 0 0 1-975-450 975 450 0 0 1 975-450 975 450 0 0 1 975 450z"/> <path transform="matrix(.1 0 0 .1 -65452 -34962)" d="m7800-3650c0 119.35-102.72 233.81-285.57 318.2-182.85 84.392-430.84 131.8-689.43 131.8s-506.58-47.41-689.43-131.8c-182.85-84.392-285.57-198.85-285.57-318.2"/> <path transform="matrix(.1 0 0 .1 -65452 -34962)" d="m7800-3200c0 119.35-102.72 233.81-285.57 318.2-182.85 84.392-430.84 131.8-689.43 131.8s-506.58-47.41-689.43-131.8c-182.85-84.392-285.57-198.85-285.57-318.2"/> <path transform="matrix(.1 0 0 .1 -65452 -34962)" d="m7800-2300c0 119.35-102.72 233.81-285.57 318.2-182.85 84.392-430.84 131.8-689.43 131.8s-506.58-47.41-689.43-131.8c-182.85-84.392-285.57-198.85-285.57-318.2"/> <path transform="matrix(.1 0 0 .1 -65452 -34962)" d="m7800-2750c0 119.35-102.72 233.81-285.57 318.2-182.85 84.392-430.84 131.8-689.43 131.8s-506.58-47.41-689.43-131.8c-182.85-84.392-285.57-198.85-285.57-318.2"/> <path transform="matrix(.1 0 0 .10056 -65452 -34961)" d="m5850-4100v1800"/> <path transform="matrix(.1 0 0 .10056 -65452 -34961)" d="m7800-4100v1800"/> </g> <path transform="matrix(.1 0 0 .1 -60548 -31882)" d="m-42225-32575c0 341.67 0 683.34-1170.8 854.17s-3512.5 170.83-5854.2 170.83" stroke-dasharray="2000, 500, 250, 500" stroke-linecap="round" stroke-linejoin="round" stroke-width="250"/> </g> <g stroke="#b42b6f"> <g stroke-width="150"> <path transform="matrix(.1 0 0 .1 -65108 -34962)" d="m7800-4100a975 450 0 0 1-975 450 975 450 0 0 1-975-450 975 450 0 0 1 975-450 975 450 0 0 1 975 450z"/> <path transform="matrix(.1 0 0 .1 -65108 -34962)" d="m7800-3650c0 119.35-102.72 233.81-285.57 318.2-182.85 84.392-430.84 131.8-689.43 131.8s-506.58-47.41-689.43-131.8c-182.85-84.392-285.57-198.85-285.57-318.2"/> <path transform="matrix(.1 0 0 .1 -65108 -34962)" d="m7800-3200c0 119.35-102.72 233.81-285.57 318.2-182.85 84.392-430.84 131.8-689.43 131.8s-506.58-47.41-689.43-131.8c-182.85-84.392-285.57-198.85-285.57-318.2"/> <path transform="matrix(.1 0 0 .1 -65108 -34962)" d="m7800-2300c0 119.35-102.72 233.81-285.57 318.2-182.85 84.392-430.84 131.8-689.43 131.8s-506.58-47.41-689.43-131.8c-182.85-84.392-285.57-198.85-285.57-318.2"/> <path transform="matrix(.1 0 0 .1 -65108 -34962)" d="m7800-2750c0 119.35-102.72 233.81-285.57 318.2-182.85 84.392-430.84 131.8-689.43 131.8s-506.58-47.41-689.43-131.8c-182.85-84.392-285.57-198.85-285.57-318.2"/> <path transform="matrix(.1 0 0 .10056 -65108 -34961)" d="m5850-4100v1800"/> <path transform="matrix(.1 0 0 .10056 -65108 -34961)" d="m7800-4100v1800"/> </g> <path transform="matrix(.1 0 0 .1 -60548 -31882)" d="m-38775-32575c0 508.33 0 1016.7-1745.8 1270.8-1745.8 254.16-5237.5 254.16-8729.2 254.16" stroke-dasharray="2000, 500, 250, 500" stroke-linecap="round" stroke-linejoin="round" stroke-width="250"/> </g> <g stroke="#5d37a2"> <g stroke-width="150"> <path transform="matrix(.1 0 0 .1 -65798 -34322)" d="m7800-4100a975 450 0 0 1-975 450 975 450 0 0 1-975-450 975 450 0 0 1 975-450 975 450 0 0 1 975 450z"/> <path transform="matrix(.1 0 0 .1 -65798 -34322)" d="m7800-3650c0 119.35-102.72 233.81-285.57 318.2-182.85 84.392-430.84 131.8-689.43 131.8s-506.58-47.41-689.43-131.8c-182.85-84.392-285.57-198.85-285.57-318.2"/> <path transform="matrix(.1 0 0 .1 -65798 -34322)" d="m7800-3200c0 119.35-102.72 233.81-285.57 318.2-182.85 84.392-430.84 131.8-689.43 131.8s-506.58-47.41-689.43-131.8c-182.85-84.392-285.57-198.85-285.57-318.2"/> <path transform="matrix(.1 0 0 .1 -65798 -34322)" d="m7800-2300c0 119.35-102.72 233.81-285.57 318.2-182.85 84.392-430.84 131.8-689.43 131.8s-506.58-47.41-689.43-131.8c-182.85-84.392-285.57-198.85-285.57-318.2"/> <path transform="matrix(.1 0 0 .1 -65798 -34322)" d="m7800-2750c0 119.35-102.72 233.81-285.57 318.2-182.85 84.392-430.84 131.8-689.43 131.8s-506.58-47.41-689.43-131.8c-182.85-84.392-285.57-198.85-285.57-318.2"/> <path transform="matrix(.1 0 0 .10056 -65798 -34321)" d="m5850-4100v1800"/> <path transform="matrix(.1 0 0 .10056 -65798 -34321)" d="m7800-4100v1800"/> </g> <path transform="matrix(.1 0 0 .1 -60548 -31882)" d="m-45675-29025c0-175 0-349.99-595.83-437.5-595.83-87.505-1787.5-87.505-2979.2-87.505" stroke-dasharray="2000, 500, 250, 500" stroke-linecap="round" stroke-linejoin="round" stroke-width="250"/> </g> <g stroke="#d56a11"> <g stroke-width="150"> <path transform="matrix(.1 0 0 .1 -65452 -34322)" d="m7800-4100a975 450 0 0 1-975 450 975 450 0 0 1-975-450 975 450 0 0 1 975-450 975 450 0 0 1 975 450z"/> <path transform="matrix(.1 0 0 .1 -65452 -34322)" d="m7800-3650c0 119.35-102.72 233.81-285.57 318.2-182.85 84.392-430.84 131.8-689.43 131.8s-506.58-47.41-689.43-131.8c-182.85-84.392-285.57-198.85-285.57-318.2"/> <path transform="matrix(.1 0 0 .1 -65452 -34322)" d="m7800-3200c0 119.35-102.72 233.81-285.57 318.2-182.85 84.392-430.84 131.8-689.43 131.8s-506.58-47.41-689.43-131.8c-182.85-84.392-285.57-198.85-285.57-318.2"/> <path transform="matrix(.1 0 0 .1 -65452 -34322)" d="m7800-2300c0 119.35-102.72 233.81-285.57 318.2-182.85 84.392-430.84 131.8-689.43 131.8s-506.58-47.41-689.43-131.8c-182.85-84.392-285.57-198.85-285.57-318.2"/> <path transform="matrix(.1 0 0 .1 -65452 -34322)" d="m7800-2750c0 119.35-102.72 233.81-285.57 318.2-182.85 84.392-430.84 131.8-689.43 131.8s-506.58-47.41-689.43-131.8c-182.85-84.392-285.57-198.85-285.57-318.2"/> <path transform="matrix(.1 0 0 .10056 -65452 -34321)" d="m5850-4100v1800"/> <path transform="matrix(.1 0 0 .10056 -65452 -34321)" d="m7800-4100v1800"/> </g> <path transform="matrix(.1 0 0 .1 -60548 -31882)" d="m-42225-29025c0-341.67 0-683.32-1170.8-854.16s-3512.5-170.84-5854.2-170.84" stroke-dasharray="2000, 500, 250, 500" stroke-linecap="round" stroke-linejoin="round" stroke-width="250"/> </g> <g stroke="#228c3a"> <g stroke-width="150"> <path transform="matrix(.1 0 0 .1 -65108 -34322)" d="m7800-4100a975 450 0 0 1-975 450 975 450 0 0 1-975-450 975 450 0 0 1 975-450 975 450 0 0 1 975 450z"/> <path transform="matrix(.1 0 0 .1 -65108 -34322)" d="m7800-3650c0 119.35-102.72 233.81-285.57 318.2-182.85 84.392-430.84 131.8-689.43 131.8s-506.58-47.41-689.43-131.8c-182.85-84.392-285.57-198.85-285.57-318.2"/> <path transform="matrix(.1 0 0 .1 -65108 -34322)" d="m7800-3200c0 119.35-102.72 233.81-285.57 318.2-182.85 84.392-430.84 131.8-689.43 131.8s-506.58-47.41-689.43-131.8c-182.85-84.392-285.57-198.85-285.57-318.2"/> <path transform="matrix(.1 0 0 .1 -65108 -34322)" d="m7800-2300c0 119.35-102.72 233.81-285.57 318.2-182.85 84.392-430.84 131.8-689.43 131.8s-506.58-47.41-689.43-131.8c-182.85-84.392-285.57-198.85-285.57-318.2"/> <path transform="matrix(.1 0 0 .1 -65108 -34322)" d="m7800-2750c0 119.35-102.72 233.81-285.57 318.2-182.85 84.392-430.84 131.8-689.43 131.8s-506.58-47.41-689.43-131.8c-182.85-84.392-285.57-198.85-285.57-318.2"/> <path transform="matrix(.1 0 0 .10056 -65108 -34321)" d="m5850-4100v1800"/> <path transform="matrix(.1 0 0 .10056 -65108 -34321)" d="m7800-4100v1800"/> </g> <path transform="matrix(.1 0 0 .1 -60548 -31882)" d="m-38775-29025c0-508.33 0-1016.7-1745.8-1270.8-1745.8-254.17-5237.5-254.17-8729.2-254.17" stroke-dasharray="2000, 500, 250, 500" stroke-linecap="round" stroke-linejoin="round" stroke-width="250"/> </g> <g stroke="#13889b" stroke-width="250"> <path transform="matrix(.1 0 0 .1 -65798 -34962)" d="m3250-3e3a3250 1500 0 0 1-3250 1500 3250 1500 0 0 1-3250-1500 3250 1500 0 0 1 3250-1500 3250 1500 0 0 1 3250 1500z"/> <path transform="matrix(.1 0 0 .1 -65798 -34962)" d="m3250-1500c0 397.82-342.41 779.36-951.9 1060.7-609.49 281.3-1436.1 439.34-2298.1 439.34s-1688.6-158.04-2298.1-439.34-951.9-662.84-951.9-1060.7"/> <path transform="matrix(.1 0 0 .1 -65798 -34962)" d="m3250 0c0 397.82-342.41 779.36-951.9 1060.7-609.49 281.3-1436.1 439.34-2298.1 439.34s-1688.6-158.04-2298.1-439.34-951.9-662.84-951.9-1060.7"/> <path transform="matrix(.1 0 0 .1 -65798 -34962)" d="m3250 3e3c0 397.82-342.41 779.36-951.9 1060.7-609.49 281.3-1436.1 439.34-2298.1 439.34s-1688.6-158.04-2298.1-439.34-951.9-662.84-951.9-1060.7"/> <path transform="matrix(.1 0 0 .1 -65798 -34962)" d="m3250 1500c0 397.82-342.41 779.36-951.9 1060.7-609.49 281.3-1436.1 439.34-2298.1 439.34s-1688.6-158.04-2298.1-439.34-951.9-662.84-951.9-1060.7"/> <path transform="matrix(.1 0 0 .1005 -65798 -34962)" d="m-3250-3e3v6e3"/> <path transform="matrix(.1 0 0 .1005 -65798 -34962)" d="m3250-3e3v6e3"/> </g> </g> </g> </svg>